<svg width="90" height="30" viewBox="0 0 90 30" fill="none" xmlns="http://www.w3.org/2000/svg">
  <g clip-path="url(#clip0_272_2777)">
    <path d="M38.3139 15.385C38.3139 19.5491 35.03 22.6176 30.9999 22.6176C26.9698 22.6176 23.6859 19.5491 23.6859 15.385C23.6859 11.1915 26.9698 8.15234 30.9999 8.15234C35.03 8.15234 38.3139 11.1915 38.3139 15.385ZM35.1122 15.385C35.1122 12.7828 33.2089 11.0023 30.9999 11.0023C28.7909 11.0023 26.8876 12.7828 26.8876 15.385C26.8876 17.961 28.7909 19.7676 30.9999 19.7676C33.2089 19.7676 35.1122 17.9578 35.1122 15.385Z" fill="#EA4335" />
    <path d="M54.0925 15.385C54.0925 19.5491 50.8086 22.6176 46.7785 22.6176C42.7484 22.6176 39.4645 19.5491 39.4645 15.385C39.4645 11.1947 42.7484 8.15234 46.7785 8.15234C50.8086 8.15234 54.0925 11.1915 54.0925 15.385ZM50.8908 15.385C50.8908 12.7828 48.9875 11.0023 46.7785 11.0023C44.5695 11.0023 42.6662 12.7828 42.6662 15.385C42.6662 17.961 44.5695 19.7676 46.7785 19.7676C48.9875 19.7676 50.8908 17.9578 50.8908 15.385Z" fill="#FBBC05" />
    <path d="M69.2136 8.5893V21.5741C69.2136 26.9154 66.0382 29.0969 62.2842 29.0969C58.7505 29.0969 56.6236 26.7523 55.8216 24.835L58.6091 23.6839C59.1055 24.861 60.3218 26.2502 62.2809 26.2502C64.6839 26.2502 66.173 24.7795 66.173 22.011V20.9708H66.0612C65.3446 21.848 63.964 22.6143 62.2218 22.6143C58.5762 22.6143 55.2365 19.4643 55.2365 15.411C55.2365 11.3284 58.5762 8.15234 62.2218 8.15234C63.9607 8.15234 65.3413 8.91865 66.0612 9.76973H66.173V8.59256H69.2136V8.5893ZM66.3998 15.411C66.3998 12.8643 64.6872 11.0023 62.5077 11.0023C60.2987 11.0023 58.448 12.8643 58.448 15.411C58.448 17.9317 60.2987 19.7676 62.5077 19.7676C64.6872 19.7676 66.3998 17.9317 66.3998 15.411Z" fill="#4285F4" />
    <path d="M74.2266 0.978516V22.1742H71.1038V0.978516H74.2266Z" fill="#34A853" />
    <path d="M86.3959 17.7647L88.881 19.4082C88.079 20.5854 86.1461 22.6137 82.8063 22.6137C78.6644 22.6137 75.5712 19.4376 75.5712 15.381C75.5712 11.08 78.6907 8.14844 82.448 8.14844C86.2316 8.14844 88.0822 11.1354 88.6871 12.7495L89.0191 13.5713L79.2726 17.5756C80.0187 19.0267 81.1791 19.7669 82.8063 19.7669C84.4367 19.7669 85.5675 18.9713 86.3959 17.7647ZM78.7466 15.1626L85.2618 12.4789C84.9035 11.5756 83.8253 10.9463 82.5565 10.9463C80.9293 10.9463 78.6644 12.3713 78.7466 15.1626Z" fill="#EA4335" />
    <path d="M11.8653 13.5023V10.4339H22.289C22.3909 10.9686 22.4435 11.6013 22.4435 12.286C22.4435 14.5882 21.8091 17.435 19.7644 19.4632C17.7757 21.5176 15.2347 22.6132 11.8686 22.6132C5.62948 22.6132 0.383118 17.5719 0.383118 11.3828C0.383118 5.19365 5.62948 0.152344 11.8686 0.152344C15.3201 0.152344 17.779 1.49582 19.6264 3.24691L17.4437 5.41213C16.1189 4.17952 14.3241 3.22082 11.8653 3.22082C7.30924 3.22082 3.74592 6.86321 3.74592 11.3828C3.74592 15.9023 7.30924 19.5447 11.8653 19.5447C14.8205 19.5447 16.5035 18.3676 17.5817 17.298C18.4561 16.4306 19.0314 15.1915 19.2582 13.4991L11.8653 13.5023Z" fill="#4285F4" />
  </g>
  <defs>
    <clipPath id="clip0_272_2777">
      <rect width="89.4118" height="30" fill="white" transform="translate(0.264709)" />
    </clipPath>
  </defs>
</svg>