<svg width="40" height="40" viewBox="0 0 40 40" fill="none" xmlns="http://www.w3.org/2000/svg">
<path d="M16.0607 22.2727C15.4749 21.6869 14.5252 21.6869 13.9394 22.2727C13.3536 22.8585 13.3536 23.8082 13.9394 24.394L16.0607 22.2727ZM18.3334 26.6667L17.2727 27.7273C17.8585 28.3131 18.8082 28.3131 19.394 27.7273L18.3334 26.6667ZM26.0607 21.0607C26.6465 20.4749 26.6465 19.5251 26.0607 18.9393C25.4749 18.3536 24.5252 18.3536 23.9394 18.9393L26.0607 21.0607ZM30.1667 11.6667V31.6667H33.1667V11.6667H30.1667ZM28.3334 33.5H11.6667V36.5H28.3334V33.5ZM9.83337 31.6667V11.6667H6.83337V31.6667H9.83337ZM11.6667 9.83333H15V6.83333H11.6667V9.83333ZM25 9.83333H28.3334V6.83333H25V9.83333ZM11.6667 33.5C10.6542 33.5 9.83337 32.6792 9.83337 31.6667H6.83337C6.83337 34.336 8.99733 36.5 11.6667 36.5V33.5ZM30.1667 31.6667C30.1667 32.6792 29.3459 33.5 28.3334 33.5V36.5C31.0028 36.5 33.1667 34.336 33.1667 31.6667H30.1667ZM33.1667 11.6667C33.1667 8.99729 31.0028 6.83333 28.3334 6.83333V9.83333C29.3459 9.83333 30.1667 10.6541 30.1667 11.6667H33.1667ZM9.83337 11.6667C9.83337 10.6541 10.6542 9.83333 11.6667 9.83333V6.83333C8.99733 6.83333 6.83337 8.99729 6.83337 11.6667H9.83337ZM13.9394 24.394L17.2727 27.7273L19.394 25.606L16.0607 22.2727L13.9394 24.394ZM19.394 27.7273L26.0607 21.0607L23.9394 18.9393L17.2727 25.606L19.394 27.7273ZM18.3334 6.5H21.6667V3.5H18.3334V6.5ZM21.6667 10.1667H18.3334V13.1667H21.6667V10.1667ZM18.3334 10.1667C17.3209 10.1667 16.5 9.34586 16.5 8.33333H13.5C13.5 11.0027 15.664 13.1667 18.3334 13.1667V10.1667ZM23.5 8.33333C23.5 9.34586 22.6792 10.1667 21.6667 10.1667V13.1667C24.3361 13.1667 26.5 11.0027 26.5 8.33333H23.5ZM21.6667 6.5C22.6792 6.5 23.5 7.32081 23.5 8.33333H26.5C26.5 5.66396 24.3361 3.5 21.6667 3.5V6.5ZM18.3334 3.5C15.664 3.5 13.5 5.66396 13.5 8.33333H16.5C16.5 7.32081 17.3209 6.5 18.3334 6.5V3.5Z" fill="white"/>
</svg>
