<svg width="113" height="28" viewBox="0 0 113 28" fill="none" xmlns="http://www.w3.org/2000/svg">
  <g clip-path="url(#clip0_272_2793)">
    <path d="M40.2221 10.2123V11.6999H40.268C40.8075 10.9034 41.7031 9.96544 43.6882 9.96544C45.2326 9.96544 46.4173 10.7455 46.925 11.9237H46.9709C47.4046 11.328 47.9017 10.8771 48.4588 10.5579C49.1182 10.1794 49.8516 9.96215 50.7754 9.96215C52.8663 9.96215 54.7175 11.3116 54.7175 14.7147V21.1689H51.53V15.1656C51.53 13.441 50.9024 12.4437 49.5977 12.4437C48.6422 12.4437 47.9476 13.0428 47.6831 13.78C47.5915 14.0334 47.5491 14.379 47.5491 14.6686V21.1721H44.3617V14.9221C44.3617 13.4575 43.7587 12.4405 42.4717 12.4405C41.4421 12.4405 40.7969 13.1974 40.5324 13.8458C40.4196 14.1223 40.3843 14.4415 40.3843 14.741V21.1689H37.1933V10.2123H40.2221ZM71.1697 10.2123V12.2792H71.2579C71.8432 10.6994 73.2324 9.96544 74.4524 9.96544C74.7592 9.96544 74.9284 9.98848 75.1752 10.0346V12.9045C74.8826 12.865 74.6111 12.8255 74.2303 12.8255C72.8481 12.8255 71.8855 13.5759 71.6422 14.7509C71.5893 14.9945 71.5717 15.2578 71.5717 15.5606V21.1721H68.2996V10.2123H71.1697ZM79.618 6.58203V10.0313H82.3824V12.8222H79.618V16.9396C79.618 18.2726 79.9812 18.9176 81.0601 18.9176C81.5679 18.9176 81.9416 18.8584 82.266 18.7827L82.3083 21.0964C81.8746 21.2478 80.9508 21.4124 80.0129 21.4124C78.9093 21.4124 77.989 21.0537 77.4284 20.4974C76.7866 19.8622 76.4904 18.8222 76.4904 17.3411V6.58203H79.618ZM34.9719 21.1689H31.7986V6.58203H34.9719V21.1689ZM26.5096 17.2556C26.5096 17.4563 26.4919 17.667 26.432 17.848C26.1852 18.6083 25.3425 19.2501 24.2917 19.2501C23.4138 19.2501 22.7156 18.786 22.7156 17.8019C22.7156 16.2978 24.4927 15.8798 26.5131 15.8897V17.2556H26.5096ZM29.6794 14.6324C29.6794 12.1475 28.5441 9.96544 24.7043 9.96544C22.7332 9.96544 21.1677 10.4822 20.3144 10.9429L20.9385 12.9374C21.7178 12.4767 22.9624 12.0982 24.1401 12.0982C26.09 12.0949 26.4073 13.1283 26.4073 13.7899V13.9478C22.1585 13.9413 19.4752 15.3137 19.4752 18.1113C19.4752 19.8194 20.8398 21.419 23.2163 21.419C24.6796 21.419 25.8996 20.8759 26.633 20.0038H26.7035C26.7035 20.0038 27.1901 21.8962 29.8628 21.1721C29.7218 20.3822 29.6759 19.543 29.6759 18.5326V14.6324H29.6794ZM3.53425 6.58203C3.86217 8.12563 4.79303 12.6083 4.79303 12.6083C5.18441 14.4514 5.54406 16.3834 5.81556 17.9105H5.86493C6.12938 16.2879 6.54544 14.7509 6.98972 12.8486L8.55878 6.58203H12.0319L13.4987 13.0098C13.883 14.797 14.1898 16.176 14.4331 17.8381H14.4789C14.7434 16.1596 15.0889 14.7246 15.4662 12.8881L16.8766 6.58203H20.2086L16.0797 21.1689C13.4493 21.7053 12.4409 20.718 12.0812 19.1513C11.7216 17.5814 11.0164 14.5962 11.0164 14.5962C10.6532 12.9605 10.3711 11.8085 10.1737 10.13H10.1243C9.84224 11.7921 9.54606 12.9572 9.10883 14.5929L7.37758 21.1721C4.69077 21.6724 3.75991 20.9319 3.24512 18.9209C2.80084 17.1996 0.0294189 6.58532 0.0294189 6.58532H3.53425V6.58203ZM63.0106 17.2556C63.0106 17.4563 62.993 17.667 62.933 17.848C62.6862 18.6083 61.8435 19.2501 60.7927 19.2501C59.9148 19.2501 59.2166 18.786 59.2166 17.8019C59.2166 16.2978 60.9937 15.8798 63.0141 15.8897V17.2556H63.0106ZM66.1805 14.6324C66.1805 12.1475 65.0451 9.96544 61.2053 9.96544C59.2343 9.96544 57.6687 10.4822 56.8154 10.9429L57.4395 12.9374C58.2188 12.4767 59.4634 12.0982 60.6411 12.0982C62.5875 12.0949 62.9083 13.1283 62.9083 13.7899V13.9478C58.6631 13.9413 55.9798 15.3137 55.9798 18.1113C55.9798 19.8194 57.3479 21.419 59.7208 21.419C61.1806 21.419 62.4041 20.8759 63.134 20.0038H63.208C63.208 20.0038 63.6946 21.8962 66.3673 21.1721C66.2263 20.3822 66.1805 19.543 66.1805 18.5326V14.6324Z" fill="#041E42" />
    <path d="M95.2462 16.1445C95.559 16.6772 95.5379 17.2718 95.204 17.5433L89.433 21.499C88.832 21.8393 87.9322 21.4268 87.4226 20.5642C86.9094 19.6982 87.0008 18.7324 87.6018 18.3922L93.9915 15.4847C94.3921 15.3335 94.9334 15.6118 95.2462 16.1445ZM102.841 16.1445C103.158 15.6118 103.695 15.3369 104.096 15.4812L110.489 18.3887C111.09 18.729 111.178 19.6947 110.669 20.5608C110.155 21.4234 109.252 21.8324 108.655 21.4956L102.884 17.5399C102.553 17.2718 102.529 16.6738 102.841 16.1445ZM99.042 18.2891C99.6712 18.2891 100.188 18.6053 100.258 19.0211L100.88 25.8878C100.88 26.5682 100.068 27.125 99.0456 27.125C98.0263 27.125 97.2109 26.5682 97.2109 25.8878L97.8295 19.0211C97.8998 18.6053 98.4164 18.2891 99.042 18.2891ZM102.884 10.4601L108.655 6.50098C109.252 6.16074 110.155 6.56972 110.669 7.43578C111.178 8.30185 111.09 9.26758 110.489 9.60782L104.096 12.5188C103.695 12.6631 103.154 12.3882 102.841 11.8555C102.529 11.3228 102.553 10.7282 102.884 10.4601ZM93.9915 12.5188L87.6018 9.60782C87.0043 9.26758 86.913 8.30185 87.4226 7.43578C87.9322 6.56972 88.8355 6.16074 89.433 6.50098L95.204 10.4601C95.5379 10.7248 95.559 11.3228 95.2462 11.8555C94.9334 12.3882 94.3921 12.6631 93.9915 12.5188ZM97.8295 8.97889L97.2109 2.11223C97.2109 1.43176 98.0228 0.875 99.0456 0.875C100.068 0.875 100.88 1.43176 100.88 2.11223L100.258 8.97889C100.188 9.3913 99.6712 9.71092 99.042 9.71092C98.4164 9.71092 97.8998 9.3913 97.8295 8.97889ZM112.229 21.4715V21.2997H112.387C112.44 21.2997 112.475 21.3341 112.475 21.3856C112.475 21.4337 112.44 21.4715 112.387 21.4715H112.229ZM112.099 21.7843C112.099 21.8015 112.113 21.8186 112.134 21.8186H112.201C112.218 21.8186 112.236 21.8015 112.236 21.7843V21.5884H112.345L112.433 21.7946C112.44 21.8083 112.45 21.8186 112.465 21.8186H112.545C112.57 21.8186 112.588 21.7946 112.577 21.7705C112.545 21.7087 112.514 21.6434 112.482 21.5781C112.535 21.5609 112.616 21.5093 112.616 21.3856C112.616 21.255 112.507 21.1794 112.398 21.1794H112.134C112.117 21.1794 112.099 21.1966 112.099 21.2138V21.7843ZM111.814 21.499C111.814 21.2206 112.046 20.9938 112.331 20.9938C112.616 20.9938 112.848 21.2172 112.848 21.499C112.848 21.7774 112.619 22.0042 112.331 22.0042C112.043 22.0042 111.814 21.7774 111.814 21.499ZM111.691 21.499C111.691 21.8427 111.976 22.1245 112.331 22.1245C112.682 22.1245 112.971 21.8427 112.971 21.499C112.971 21.1553 112.682 20.8735 112.331 20.8735C111.976 20.8735 111.691 21.1553 111.691 21.499Z" fill="#FFC124" />
  </g>
  <defs>
    <clipPath id="clip0_272_2793">
      <rect width="112.941" height="26.25" fill="white" transform="translate(0.0294189 0.875)" />
    </clipPath>
  </defs>
</svg>