<svg width="98" height="30" viewBox="0 0 98 30" fill="none" xmlns="http://www.w3.org/2000/svg">
  <g clip-path="url(#clip0_272_2745)">
    <path d="M28.2892 21.2611C28.1372 20.8955 27.9946 20.5111 27.8425 20.183L27.1392 18.6174L27.1107 18.5892C25.0198 14.0892 22.7864 9.51423 20.4199 5.01423L20.3248 4.82673C20.0872 4.38611 19.8496 3.89861 19.6025 3.44861C19.2984 2.91423 19.0038 2.34236 18.5191 1.79861C18.0466 1.22967 17.452 0.771282 16.7781 0.456532C16.1043 0.141782 15.368 -0.0214844 14.6224 -0.0214844C13.8768 -0.0214844 13.1406 0.141782 12.4667 0.456532C11.7928 0.771282 11.1982 1.22967 10.7258 1.79861C10.2791 2.34236 9.94643 2.91423 9.6423 3.44861C9.4047 3.93611 9.1671 4.41423 8.92 4.85486L8.82496 5.04236C6.49647 9.54236 4.225 14.1174 2.13411 18.6174L2.07709 18.6736C1.868 19.1611 1.6209 19.6674 1.3833 20.2111C1.23123 20.5392 1.07917 20.8955 0.927102 21.2892C0.516558 22.3203 0.385459 23.4391 0.546724 24.5353C0.707989 25.6316 1.15605 26.6674 1.84675 27.5409C2.53746 28.4143 3.44696 29.0951 4.48563 29.5162C5.52429 29.9373 6.65628 30.0842 7.77001 29.9424C8.83776 29.8037 9.86591 29.4529 10.7923 28.9111C12.0278 28.2267 13.2158 27.233 14.5464 25.7986C15.877 27.233 17.0935 28.2267 18.3005 28.9205C19.4612 29.5925 20.7757 29.9634 22.1211 29.9986C23.6791 30.005 25.1869 29.4551 26.3661 28.4505C27.5452 27.4459 28.3161 26.0544 28.5363 24.533C28.7909 23.4396 28.7048 22.296 28.2892 21.2517V21.2611ZM14.6414 22.8174C13.0067 20.7549 11.9423 18.8611 11.5811 17.2392C11.4315 16.6382 11.3992 16.0146 11.4861 15.4017C11.5526 14.9236 11.7332 14.5017 11.9803 14.1455C12.5505 13.3299 13.5485 12.8236 14.6414 12.8236C15.1605 12.808 15.6753 12.9197 16.1398 13.1488C16.6043 13.3779 17.0038 13.7171 17.3026 14.1361C17.5497 14.5111 17.7302 14.9236 17.7873 15.4017C17.8823 15.9455 17.8443 16.5736 17.6922 17.2392C17.3311 18.833 16.2666 20.7455 14.6414 22.8174ZM26.7496 24.2049C26.6416 24.9773 26.3303 25.7084 25.8467 26.3252C25.3631 26.942 24.7241 27.4231 23.9934 27.7205C23.2711 28.0205 22.4728 28.1049 21.6934 28.0205C20.9331 27.9267 20.1728 27.683 19.3934 27.233C18.0995 26.4441 16.9359 25.4639 15.9435 24.3267C17.9393 21.8892 19.1463 19.6674 19.6025 17.6892C19.8211 16.7517 19.8496 15.908 19.7546 15.1299C19.6359 14.3923 19.3571 13.6888 18.9373 13.0674C18.4579 12.3935 17.818 11.8462 17.0739 11.4735C16.3298 11.1008 15.5043 10.9141 14.6699 10.9299C12.9117 10.9299 11.3435 11.7361 10.3931 13.058C9.96529 13.6778 9.68879 14.387 9.58528 15.1299C9.46173 15.9174 9.49024 16.7892 9.73734 17.6892C10.1935 19.6674 11.4291 21.9174 13.3964 24.3455C12.4208 25.5044 11.2545 26.4932 9.94643 27.2705C9.1576 27.7205 8.40678 27.9549 7.64646 28.0486C6.46404 28.198 5.26964 27.881 4.32286 27.1665C3.37608 26.452 2.75345 25.3978 2.59031 24.233C2.49527 23.483 2.5618 22.733 2.86593 21.8892C2.96097 21.5892 3.10353 21.2892 3.25559 20.933C3.46468 20.4455 3.71178 19.9392 3.94939 19.433L3.9874 19.3674C6.04027 14.8955 8.28323 10.3299 10.6117 5.85798L10.7068 5.67048C10.9444 5.22048 11.182 4.74236 11.4291 4.29236C11.6762 3.81423 11.9423 3.35486 12.2844 2.97986C12.5806 2.63112 12.9506 2.35067 13.3685 2.15825C13.7864 1.96582 14.242 1.86609 14.7032 1.86609C15.1644 1.86609 15.62 1.96582 16.0379 2.15825C16.4558 2.35067 16.8258 2.63112 17.122 2.97986C17.4546 3.35486 17.7302 3.81423 17.9773 4.29236C18.2149 4.74236 18.4525 5.22986 18.6997 5.67048L18.7947 5.85798C21.1137 10.3299 23.3566 14.8955 25.4475 19.3674L25.476 19.3955C25.7231 19.883 25.9322 20.4267 26.1698 20.8955C26.3219 21.2611 26.474 21.5517 26.569 21.8611C26.7496 22.7049 26.8446 23.4549 26.7496 24.2049ZM39.9792 22.6111C39.263 22.6214 38.5537 22.4726 37.9038 22.1756C37.2539 21.8786 36.6802 21.4411 36.2251 20.8955C35.2025 19.7329 34.6598 18.234 34.7045 16.6955C34.6888 15.1235 35.249 13.5988 36.2821 12.4017C36.76 11.8492 37.3548 11.4067 38.0248 11.1054C38.6947 10.8041 39.4235 10.6514 40.1598 10.658C40.8525 10.6393 41.5388 10.7947 42.1539 11.1095C42.7691 11.4244 43.2929 11.8884 43.6763 12.458L43.7713 10.9861H46.5465V22.3111H43.7618L43.6668 20.6611C43.2715 21.2692 42.7253 21.7676 42.0799 22.1089C41.4345 22.4502 40.7114 22.6231 39.9792 22.6111ZM40.7015 19.9111C41.2527 19.9111 41.7374 19.7611 42.1936 19.4892C42.6118 19.1892 42.954 18.7955 43.2201 18.3174C43.4577 17.8392 43.5812 17.2674 43.5812 16.6299C43.6183 16.0762 43.509 15.5225 43.2641 15.0229C43.0192 14.5234 42.6471 14.095 42.1841 13.7799C41.7393 13.5064 41.2256 13.3615 40.7015 13.3615C40.1774 13.3615 39.6637 13.5064 39.2189 13.7799C38.8007 14.0799 38.4585 14.4736 38.1924 14.9517C37.9411 15.479 37.8175 16.0567 37.8313 16.6392C37.7942 17.1929 37.9035 17.7466 38.1484 18.2462C38.3933 18.7457 38.7654 19.174 39.2284 19.4892C39.6751 19.7611 40.1598 19.9111 40.7015 19.9111ZM51.2985 7.92986C51.2985 8.25798 51.2415 8.55798 51.0894 8.80173C50.9373 9.03611 50.7283 9.25173 50.4526 9.40173C50.177 9.55173 49.8824 9.60798 49.5783 9.60798C49.2741 9.60798 48.97 9.55173 48.6944 9.40173C48.4337 9.25858 48.2145 9.05204 48.0576 8.80173C47.9104 8.53467 47.8383 8.23366 47.8485 7.92986C47.8485 7.59236 47.9151 7.29236 48.0576 7.05798C48.2097 6.77673 48.4283 6.60798 48.6944 6.45798C48.97 6.30798 49.2646 6.24236 49.5783 6.24236C49.8808 6.23548 50.1799 6.30616 50.4465 6.44748C50.713 6.5888 50.9378 6.79592 51.0989 7.04861C51.2372 7.32193 51.3057 7.62445 51.2985 7.92986ZM48.0671 22.2736V10.9674H51.0894V22.2924H48.0576L48.0671 22.2736ZM59.1678 13.9299V13.9674C59.0253 13.9017 58.8352 13.8736 58.6926 13.8455C58.5026 13.808 58.3505 13.808 58.1699 13.808C57.3241 13.808 56.6873 14.0517 56.2691 14.558C55.8129 15.0736 55.6038 15.7955 55.6038 16.7236V22.283H52.572V10.958H55.3567L55.4518 12.6736C55.7559 12.0736 56.117 11.6236 56.6303 11.2861C57.1408 10.9582 57.7417 10.7944 58.3505 10.8174C58.5691 10.8174 58.7782 10.8361 58.9588 10.8736C59.0538 10.9017 59.1108 10.9017 59.1678 10.9299V13.9299ZM60.3844 22.2736V6.31736H63.4067V12.4111C63.8343 11.8674 64.319 11.4455 64.9273 11.1174C65.8902 10.6516 66.9842 10.5195 68.0326 10.7423C69.081 10.9652 70.0227 11.5299 70.7057 12.3455C71.7306 13.5104 72.2734 15.0131 72.2264 16.5549C72.242 18.1268 71.6818 19.6516 70.6487 20.8486C70.1709 21.4011 69.576 21.8436 68.9061 22.1449C68.2361 22.4462 67.5073 22.5989 66.7711 22.5924C66.0783 22.6111 65.3921 22.4557 64.7769 22.1408C64.1618 21.8259 63.6379 21.3619 63.2546 20.7924L63.1595 22.2642L60.3844 22.2924V22.2736ZM66.2293 19.9111C66.7711 19.9111 67.2558 19.7611 67.712 19.4892C68.1302 19.1892 68.4723 18.7955 68.7384 18.3174C68.9855 17.8392 69.0996 17.2674 69.0996 16.6299C69.0996 16.0017 68.9855 15.4299 68.7384 14.9517C68.4888 14.4907 68.1382 14.0904 67.712 13.7799C67.2671 13.5064 66.7535 13.3615 66.2293 13.3615C65.7052 13.3615 65.1916 13.5064 64.7467 13.7799C64.319 14.0799 63.9864 14.4736 63.7108 14.9517C63.4594 15.479 63.3358 16.0567 63.3496 16.6392C63.3126 17.1929 63.4218 17.7466 63.6667 18.2462C63.9116 18.7457 64.2837 19.174 64.7467 19.4892C65.1934 19.7611 65.6781 19.9111 66.2293 19.9111ZM73.3669 22.283V10.958H76.1516L76.2466 12.4299C76.5965 11.8657 77.0929 11.4039 77.6844 11.0924C78.2759 10.7809 78.9411 10.6309 79.611 10.658C80.3771 10.6449 81.1302 10.855 81.7759 11.2618C82.4216 11.6687 82.9315 12.2543 83.2416 12.9455C83.5742 13.658 83.7548 14.5392 83.7548 15.5236V22.3111H80.723V15.9174C80.723 15.1299 80.5424 14.5111 80.1813 14.0517C79.8201 13.6017 79.3259 13.358 78.6986 13.358C78.2424 13.358 77.8433 13.4517 77.4916 13.658C77.159 13.8736 76.8834 14.1455 76.6743 14.5299C76.4629 14.9184 76.358 15.3547 76.3702 15.7955V22.283H73.3669ZM85.2659 22.283V6.30798H88.2977V12.4017C88.7084 11.8549 89.2426 11.4101 89.8579 11.1025C90.4733 10.795 91.1529 10.6331 91.8427 10.6299C92.5589 10.6195 93.2682 10.7684 93.9181 11.0654C94.568 11.3624 95.1418 11.7999 95.5968 12.3455C96.6143 13.5103 97.1534 15.0085 97.108 16.5455C97.1245 18.1176 96.5641 19.6426 95.5303 20.8392C95.0524 21.3918 94.4576 21.8343 93.7876 22.1355C93.1177 22.4368 92.3889 22.5895 91.6526 22.583C90.9599 22.6017 90.2736 22.4463 89.6585 22.1314C89.0433 21.8165 88.5195 21.3525 88.1362 20.783L88.0506 22.2549L85.2659 22.283ZM91.1394 19.9111C91.6907 19.9111 92.1754 19.7611 92.6221 19.4892C93.0497 19.1892 93.3824 18.7955 93.658 18.3174C93.8956 17.8392 94.0191 17.2674 94.0191 16.6299C94.0562 16.0762 93.9469 15.5225 93.702 15.0229C93.4572 14.5234 93.085 14.095 92.6221 13.7799C92.1772 13.5064 91.6636 13.3615 91.1394 13.3615C90.6153 13.3615 90.1016 13.5064 89.6568 13.7799C89.2386 14.0799 88.8965 14.4736 88.6304 14.9517C88.3651 15.4743 88.2407 16.0555 88.2692 16.6392C88.2322 17.1929 88.3414 17.7466 88.5863 18.2462C88.8312 18.7457 89.2033 19.174 89.6663 19.4892C90.113 19.7611 90.5692 19.9111 91.1394 19.9111Z" fill="#FF385C" />
  </g>
  <defs>
    <clipPath id="clip0_272_2745">
      <rect width="96.9412" height="30" fill="white" transform="translate(0.5)" />
    </clipPath>
  </defs>
</svg>