<svg width="98" height="30" viewBox="0 0 98 30" fill="none" xmlns="http://www.w3.org/2000/svg">
  <g clip-path="url(#clip0_272_2749)">
    <path fill-rule="evenodd" clip-rule="evenodd" d="M60.6404 23.4612C55.0069 27.7253 46.8416 30.0003 39.8115 30.0003C29.9541 30.0003 21.0799 26.2563 14.3662 20.0292C13.8387 19.5395 14.3113 18.8722 14.9443 19.2535C22.1897 23.5826 31.1483 26.1869 40.4023 26.1869C46.6433 26.1869 53.5089 24.8609 59.8217 22.1092C60.7754 21.6932 61.5729 22.7505 60.6404 23.4612Z" fill="#FF9900" />
    <path fill-rule="evenodd" clip-rule="evenodd" d="M62.9827 20.709C62.2653 19.7644 58.2228 20.2627 56.4083 20.4837C55.8555 20.553 55.7711 20.059 56.269 19.7037C59.4887 17.3767 64.7719 18.0483 65.388 18.8283C66.004 19.6127 65.2276 25.0511 62.202 27.6468C61.7379 28.0454 61.2948 27.8331 61.5015 27.3044C62.1809 25.5624 63.7043 21.658 62.9827 20.709Z" fill="#FF9900" />
    <path fill-rule="evenodd" clip-rule="evenodd" d="M56.5347 3.27543V1.01341C56.5347 0.671075 56.7879 0.441406 57.0918 0.441406H66.9534C67.2699 0.441406 67.5231 0.675409 67.5231 1.01341V2.95043C67.5189 3.27544 67.253 3.70011 66.7804 4.37178L61.6702 11.8642C63.5691 11.8165 65.5735 12.1069 67.2952 13.1035C67.6834 13.3289 67.7889 13.6582 67.8185 13.9832V16.3969C67.8185 16.7262 67.464 17.1119 67.0927 16.9126C64.0586 15.2789 60.0287 15.1012 56.674 16.9299C56.3322 17.1206 55.9735 16.7392 55.9735 16.4099V14.1176C55.9735 13.7492 55.9777 13.1209 56.3364 12.5619L62.2568 3.84311H57.1044C56.7879 3.84311 56.5347 3.61344 56.5347 3.27543Z" fill="#1D1E25" />
    <path fill-rule="evenodd" clip-rule="evenodd" d="M20.5608 17.3905H17.5606C17.2736 17.3689 17.0458 17.1478 17.0247 16.8662V1.05369C17.0247 0.737352 17.2821 0.486015 17.6028 0.486015H20.4005C20.6917 0.499006 20.9237 0.728683 20.9448 1.01469V3.08171H20.9997C21.7297 1.08402 23.1012 0.152344 24.9494 0.152344C26.8272 0.152344 28.0003 1.08402 28.8443 3.08171C29.5701 1.08402 31.22 0.152344 32.9881 0.152344C34.2456 0.152344 35.6213 0.685349 36.461 1.88136C37.4105 3.21171 37.2163 5.14439 37.2163 6.83875L37.2121 16.8185C37.2121 17.1348 36.9547 17.3905 36.634 17.3905H33.638C33.3384 17.3689 33.0978 17.1218 33.0978 16.8185V8.43776C33.0978 7.77042 33.1569 6.1064 33.0134 5.47373C32.7898 4.41206 32.1188 4.11305 31.2496 4.11305C30.5238 4.11305 29.7642 4.61139 29.4562 5.40873C29.1481 6.20607 29.1776 7.54075 29.1776 8.43776V16.8185C29.1776 17.1348 28.9202 17.3905 28.5995 17.3905H25.6035C25.2997 17.3689 25.0634 17.1218 25.0634 16.8185L25.0591 8.43776C25.0591 6.67408 25.3419 4.07838 23.2109 4.07838C21.0546 4.07838 21.139 6.60907 21.139 8.43776V16.8185C21.139 17.1348 20.8815 17.3905 20.5608 17.3905" fill="#1D1E25" />
    <path fill-rule="evenodd" clip-rule="evenodd" d="M76.013 0.152344C80.4649 0.152344 82.8744 4.07838 82.8744 9.07044C82.8744 13.8935 80.2117 17.7199 76.013 17.7199C71.6413 17.7199 69.2614 13.7938 69.2614 8.90143C69.2614 3.97872 71.6709 0.152344 76.013 0.152344ZM76.0383 3.38071C73.8272 3.38071 73.6879 6.47474 73.6879 8.4031C73.6879 10.3358 73.6584 14.4612 76.013 14.4612C78.3381 14.4612 78.4478 11.1331 78.4478 9.1051C78.4478 7.77042 78.393 6.17574 78.0005 4.91039C77.663 3.80972 76.992 3.38071 76.0383 3.38071Z" fill="#1D1E25" />
    <path fill-rule="evenodd" clip-rule="evenodd" d="M88.6472 17.3905H85.6596C85.36 17.3689 85.1194 17.1218 85.1194 16.8185L85.1152 1.00169C85.1406 0.711349 85.3895 0.486015 85.6933 0.486015H88.4742C88.7358 0.499006 88.951 0.681017 89.0101 0.928019V3.34604H89.065C89.9047 1.18369 91.082 0.152344 93.1539 0.152344C94.5 0.152344 95.8124 0.650683 96.6563 2.0157C97.4412 3.28104 97.4412 5.40873 97.4412 6.93841V16.8922C97.4075 17.1695 97.1585 17.3905 96.8631 17.3905H93.8544C93.5801 17.3689 93.3523 17.1608 93.3227 16.8922V8.30343C93.3227 6.57441 93.5168 4.04372 91.4449 4.04372C90.7149 4.04372 90.0439 4.54639 89.7106 5.30906C89.2886 6.27541 89.2337 7.23742 89.2337 8.30343V16.8185C89.2295 17.1348 88.9679 17.3905 88.6472 17.3905" fill="#1D1E25" />
    <path fill-rule="evenodd" clip-rule="evenodd" d="M48.6732 9.83677C48.6732 11.0371 48.7028 12.0381 48.112 13.1041C47.6352 13.9708 46.8756 14.5038 46.0359 14.5038C44.8839 14.5038 44.2087 13.6025 44.2087 12.2721C44.2087 9.6461 46.5 9.16943 48.6732 9.16943V9.83677ZM51.6988 17.3465C51.5005 17.5285 51.2135 17.5415 50.9899 17.4202C49.994 16.5708 49.8126 16.1765 49.2682 15.3662C47.6225 17.0908 46.4536 17.6065 44.3226 17.6065C41.795 17.6065 39.8328 16.0075 39.8328 12.8051C39.8328 10.3048 41.1493 8.60176 43.0314 7.76975C44.6602 7.03307 46.9347 6.90307 48.6732 6.69941V6.30073C48.6732 5.56839 48.7281 4.70171 48.3061 4.06905C47.9432 3.50137 47.2427 3.26737 46.6224 3.26737C45.4788 3.26737 44.4619 3.86971 44.2129 5.11772C44.1623 5.39506 43.9639 5.66806 43.6897 5.68106L40.7822 5.36039C40.5375 5.30406 40.2632 5.10039 40.3349 4.71472C41.0016 1.09201 44.1918 0 47.0444 0C48.5044 0 50.4118 0.398672 51.5638 1.53402C53.0238 2.9337 52.8846 4.80138 52.8846 6.83374V11.6351C52.8846 13.0781 53.4669 13.7108 54.0155 14.4908C54.2054 14.7682 54.2476 15.1018 54.0028 15.3098C53.3909 15.8342 52.3022 16.8092 51.703 17.3552L51.6988 17.3465" fill="#1D1E25" />
    <path fill-rule="evenodd" clip-rule="evenodd" d="M9.34046 9.83677C9.34046 11.0371 9.36999 12.0381 8.77922 13.1041C8.30238 13.9708 7.54704 14.5038 6.70309 14.5038C5.55108 14.5038 4.88014 13.6025 4.88014 12.2721C4.88014 9.6461 7.17148 9.16943 9.34046 9.16943V9.83677ZM12.366 17.3465C12.1677 17.5285 11.8808 17.5415 11.6571 17.4202C10.6612 16.5708 10.484 16.1765 9.93544 15.3662C8.28973 17.0908 7.12507 17.6065 4.98985 17.6065C2.46642 17.6065 0.5 16.0075 0.5 12.8051C0.5 10.3048 1.82079 8.60176 3.6986 7.76975C5.32744 7.03307 7.6019 6.90307 9.34046 6.6994V6.30073C9.34046 5.56839 9.39531 4.70171 8.97755 4.06904C8.61043 3.50137 7.90995 3.26737 7.29386 3.26737C6.1503 3.26737 5.12911 3.86971 4.88014 5.11772C4.8295 5.39506 4.63117 5.66806 4.36111 5.68106L1.44945 5.36039C1.2047 5.30406 0.934637 5.10038 1.00215 4.71472C1.6731 1.09201 4.85904 0 7.71162 0C9.17166 0 11.079 0.398672 12.231 1.53402C13.6911 2.9337 13.5518 4.80138 13.5518 6.83374V11.6351C13.5518 13.0781 14.1341 13.7108 14.6827 14.4908C14.8768 14.7682 14.919 15.1018 14.6743 15.3098C14.0624 15.8342 12.9737 16.8092 12.3745 17.3552L12.366 17.3465" fill="#1D1E25" />
  </g>
  <defs>
    <clipPath id="clip0_272_2749">
      <rect width="96.9412" height="30" fill="white" transform="translate(0.5)" />
    </clipPath>
  </defs>
</svg>