<svg width="115" height="26" viewBox="0 0 115 26" fill="none" xmlns="http://www.w3.org/2000/svg">
  <g clip-path="url(#clip0_272_2768)">
    <path d="M40.6186 14.8526L39.9342 16.7799H39.8772C39.7632 16.3453 39.554 15.684 39.2118 14.8904L35.5428 5.72615H31.9498V20.3323H34.3261V11.3192C34.3261 10.7523 34.3261 10.1099 34.3071 9.31627C34.2881 8.91947 34.2501 8.61714 34.2311 8.3904H34.2881C34.4022 8.95726 34.5353 9.37296 34.6303 9.63749L39.0407 20.2945H40.7137L45.0861 9.54301C45.1811 9.29737 45.2762 8.8061 45.3713 8.3904H45.4283C45.3713 9.46743 45.3332 10.4311 45.3142 11.0169V20.2756H47.8426V5.68836H44.3827L40.6186 14.8526ZM50.2379 9.80755H52.7093V20.2756H50.2379V9.80755ZM51.4926 5.38604C51.0744 5.38604 50.7322 5.5372 50.4471 5.80173C50.1619 6.06627 50.0098 6.40639 50.0098 6.82208C50.0098 7.21889 50.1619 7.559 50.4471 7.82354C50.7322 8.08807 51.0744 8.22034 51.4926 8.22034C51.9109 8.22034 52.2721 8.06918 52.5382 7.82354C52.8234 7.559 52.9755 7.21889 52.9755 6.82208C52.9755 6.42528 52.8234 6.08517 52.5382 5.80173C52.2911 5.5372 51.9299 5.38604 51.4926 5.38604ZM61.4732 9.71307C61.0169 9.6186 60.5416 9.56191 60.0854 9.56191C58.9638 9.56191 57.9372 9.80755 57.0817 10.2988C56.2263 10.7901 55.5419 11.4703 55.1046 12.3206C54.6484 13.1898 54.4203 14.1913 54.4203 15.3439C54.4203 16.3453 54.6484 17.2334 55.0856 18.0459C55.5229 18.8395 56.1312 19.482 56.9487 19.9166C57.7281 20.3512 58.6406 20.5779 59.6672 20.5779C60.8458 20.5779 61.8534 20.3323 62.6518 19.8788L62.6708 19.8599V17.5924L62.5758 17.668C62.2146 17.9325 61.7963 18.1593 61.3781 18.2916C60.9409 18.4427 60.5416 18.5183 60.1995 18.5183C59.2109 18.5183 58.4315 18.2349 57.8802 17.6113C57.3099 17.0067 57.0247 16.1753 57.0247 15.136C57.0247 14.059 57.3099 13.2087 57.8992 12.5852C58.4885 11.9616 59.2679 11.6404 60.2185 11.6404C61.0169 11.6404 61.8344 11.9049 62.5758 12.434L62.6708 12.5096V10.1099L62.6518 10.091C62.3286 9.95871 61.9674 9.80755 61.4732 9.71307ZM69.6287 9.63749C69.0203 9.63749 68.45 9.82644 67.9557 10.2232C67.5375 10.5634 67.2524 11.0546 67.0052 11.6404H66.9862V9.80755H64.5148V20.2756H66.9862V14.9282C66.9862 14.0212 67.1763 13.2654 67.5945 12.7174C68.0128 12.1506 68.5451 11.8671 69.1914 11.8671C69.4196 11.8671 69.6477 11.9238 69.9328 11.9616C70.199 12.0372 70.3891 12.1128 70.5222 12.2073L70.6172 12.2828V9.82644L70.5602 9.80755C70.3891 9.69418 70.0469 9.63749 69.6287 9.63749ZM76.3584 9.58081C74.6284 9.58081 73.2407 10.091 72.2711 11.0924C71.2826 12.0939 70.8073 13.4732 70.8073 15.2116C70.8073 16.8366 71.3016 18.1593 72.2521 19.123C73.2027 20.0677 74.4954 20.559 76.1113 20.559C77.8032 20.559 79.1529 20.0488 80.1225 19.0285C81.111 18.0081 81.5863 16.6477 81.5863 14.966C81.5863 13.3032 81.13 11.9805 80.1985 11.0169C79.305 10.0532 77.9933 9.58081 76.3584 9.58081ZM78.3355 17.6302C77.8792 18.216 77.1568 18.4994 76.2633 18.4994C75.3699 18.4994 74.6474 18.216 74.1342 17.5924C73.6209 17.0067 73.3737 16.1564 73.3737 15.0794C73.3737 13.9645 73.6399 13.1142 74.1342 12.5096C74.6474 11.9049 75.3508 11.6026 76.2443 11.6026C77.1188 11.6026 77.8032 11.886 78.2975 12.4718C78.7917 13.0575 79.0579 13.9078 79.0579 15.0227C79.0199 16.1564 78.8108 17.0445 78.3355 17.6302ZM87.0993 14.1535C86.3199 13.8323 85.8256 13.5866 85.5975 13.3788C85.4074 13.1898 85.3123 12.9253 85.3123 12.5852C85.3123 12.3017 85.4264 12.0183 85.7116 11.8294C85.9967 11.6404 86.3199 11.5459 86.7952 11.5459C87.2134 11.5459 87.6506 11.6215 88.0689 11.7349C88.4871 11.8482 88.8673 12.0183 89.1715 12.245L89.2665 12.3206V10.0154L89.2095 9.9965C88.9243 9.88313 88.5441 9.76976 88.0879 9.67528C87.6316 9.5997 87.2134 9.56191 86.8712 9.56191C85.6926 9.56191 84.723 9.84534 83.9626 10.4689C83.2022 11.0546 82.841 11.8482 82.841 12.7741C82.841 13.2654 82.917 13.7 83.0881 14.059C83.2592 14.418 83.5064 14.7581 83.8485 15.0416C84.1907 15.3061 84.685 15.6084 85.3694 15.8919C85.9397 16.1375 86.3769 16.3264 86.6431 16.4776C86.9092 16.6288 87.0803 16.7988 87.2134 16.9311C87.3085 17.0823 87.3655 17.2712 87.3655 17.5169C87.3655 18.216 86.8332 18.5561 85.7496 18.5561C85.3314 18.5561 84.8941 18.4805 84.3808 18.3105C83.8675 18.1404 83.3923 17.8948 82.9931 17.6113L82.898 17.5357V19.9355L82.955 19.9544C83.3162 20.1244 83.7535 20.2378 84.2858 20.37C84.8181 20.4645 85.2933 20.5401 85.7116 20.5401C86.9853 20.5401 88.0309 20.2567 88.7723 19.6331C89.5327 19.0285 89.9319 18.2538 89.9319 17.2523C89.9319 16.5532 89.7418 15.9296 89.3236 15.4573C88.7723 15.0038 88.0879 14.5314 87.0993 14.1535ZM96.4525 9.58081C94.7226 9.58081 93.3348 10.091 92.3652 11.0924C91.3957 12.0939 90.9014 13.4732 90.9014 15.2116C90.9014 16.8366 91.3957 18.1593 92.3462 19.123C93.2968 20.0677 94.5895 20.559 96.2054 20.559C97.8973 20.559 99.2471 20.0488 100.217 19.0285C101.205 18.0081 101.68 16.6477 101.68 14.966C101.68 13.3032 101.224 11.9805 100.293 11.0169C99.3991 10.0532 98.0874 9.58081 96.4525 9.58081ZM98.4106 17.6302C97.9543 18.216 97.2319 18.4994 96.3384 18.4994C95.4259 18.4994 94.7226 18.216 94.2093 17.5924C93.696 17.0067 93.4489 16.1564 93.4489 15.0794C93.4489 13.9645 93.715 13.1142 94.2093 12.5096C94.7226 11.9049 95.4259 11.6026 96.3194 11.6026C97.1749 11.6026 97.8783 11.886 98.3726 12.4718C98.8668 13.0575 99.133 13.9078 99.133 15.0227C99.133 16.1564 98.8859 17.0445 98.4106 17.6302ZM114.893 11.8294V9.80755H112.402V6.70871L112.326 6.72761L109.969 7.42673L109.912 7.44563V9.80755H106.186V8.48487C106.186 7.88022 106.338 7.40784 106.604 7.10551C106.87 6.80319 107.27 6.65203 107.764 6.65203C108.106 6.65203 108.467 6.72761 108.866 6.89767L108.961 6.95435V4.81918L108.904 4.80028C108.562 4.68691 108.106 4.61133 107.517 4.61133C106.775 4.61133 106.129 4.78139 105.54 5.06482C104.95 5.38604 104.513 5.82063 104.19 6.40639C103.867 6.97325 103.696 7.61569 103.696 8.35261V9.80755H101.966V11.8105H103.696V20.2756H106.186V11.8294H109.912V17.2145C109.912 19.4253 110.958 20.5401 113.049 20.5401C113.391 20.5401 113.752 20.4834 114.094 20.4267C114.455 20.3512 114.722 20.2567 114.874 20.1811L114.893 20.1622V18.1404L114.798 18.216C114.646 18.3105 114.513 18.386 114.284 18.4427C114.094 18.4994 113.923 18.5183 113.79 18.5183C113.296 18.5183 112.954 18.4049 112.707 18.1215C112.478 17.857 112.364 17.4224 112.364 16.7799V11.8294H114.893Z" fill="#737373" />
    <path d="M0.0882568 0.8125H11.7417V12.3953H0.0882568V0.8125Z" fill="#F25022" />
    <path d="M12.9583 0.8125H24.6117V12.3953H12.9583V0.8125Z" fill="#7FBA00" />
    <path d="M0.0882568 13.6055H11.7417V25.1883H0.0882568V13.6055Z" fill="#00A4EF" />
    <path d="M12.9583 13.6055H24.6117V25.1883H12.9583V13.6055Z" fill="#FFB900" />
  </g>
  <defs>
    <clipPath id="clip0_272_2768">
      <rect width="114.824" height="24.375" fill="white" transform="translate(0.0882568 0.8125)" />
    </clipPath>
  </defs>
</svg>