<svg width="81" height="30" viewBox="0 0 81 30" fill="none" xmlns="http://www.w3.org/2000/svg">
  <g clip-path="url(#clip0_272_2798)">
    <path d="M65.9719 28.7243C73.4809 28.7243 79.5909 22.5398 79.5909 14.9393C79.5909 7.3343 73.4809 1.1543 65.9719 1.1543C58.4613 1.1543 52.3529 7.3343 52.3529 14.9393C52.3529 22.5398 58.4613 28.7243 65.9719 28.7243ZM65.9719 10.0238C68.6479 10.0238 70.8273 12.2288 70.8273 14.9378C70.8273 17.6468 68.6464 19.8488 65.9704 19.8488C63.2928 19.8488 61.1164 17.6468 61.1164 14.9363C61.1164 12.2243 63.2943 10.0208 65.9704 10.0208L65.9719 10.0238ZM14.5896 28.7243C22.0987 28.7243 28.2086 22.5398 28.2086 14.9393C28.2086 7.3343 22.0987 1.1543 14.5896 1.1543C7.08198 1.1543 0.970581 7.3343 0.970581 14.9393C0.970581 22.5398 7.08198 28.7243 14.5896 28.7243ZM14.5896 10.0238C17.2671 10.0238 19.445 12.2288 19.445 14.9378C19.445 17.6468 17.2671 19.8488 14.5896 19.8488C11.9135 19.8488 9.73716 17.6468 9.73716 14.9363C9.73716 12.2243 11.915 10.0208 14.5896 10.0208V10.0238ZM40.2733 9.7133L36.0921 1.3343H26.3022L35.4462 19.6643V28.2938H45.1018V19.6643L54.2458 1.3343H44.4514L40.2748 9.7133H40.2733Z" fill="#EE2E24" />
  </g>
  <defs>
    <clipPath id="clip0_272_2798">
      <rect width="79.0588" height="30" fill="white" transform="translate(0.970581)" />
    </clipPath>
  </defs>
</svg>